<svg xmlns="http://www.w3.org/2000/svg" viewBox="0 0 290.15 81"><defs><style>.cls-1{fill:#fff;}.cls-2{fill:#6bbf59;}</style></defs><title>comp_logo</title><g id="Слой_2" data-name="Слой 2"><g id="Layer_1" data-name="Layer 1"><polygon class="cls-1" points="64 29.43 64 23.57 35 7 6 23.57 6 57.43 35 74 64 57.43 70 54 70 61 35 81 0 61 0 20 35 0 70 20 70 33 64 36.43 35 53 35 46 64 29.43"/><polygon class="cls-2" points="35 60 22 52.57 22 59.57 35 67 77 43 77 36 35 60"/><path class="cls-1" d="M96.43,33.52H91.74V27.83h4.69V26.42a16,16,0,0,1,.87-5.26,12.81,12.81,0,0,1,2.62-4.45,13,13,0,0,1,4.25-3.12A13.77,13.77,0,0,1,110,12.42a18.26,18.26,0,0,1,6.77,1.17A25.27,25.27,0,0,1,122,16.31l-3,5.49a13.3,13.3,0,0,0-8.44-3.08,6.68,6.68,0,0,0-3,.63,5.93,5.93,0,0,0-2.08,1.71,7.64,7.64,0,0,0-1.21,2.42,9.71,9.71,0,0,0-.4,2.74v1.61h18.36V62h-7.37V33.52h-11V62H96.43Z"/><path class="cls-1" d="M161.33,62H154V42.37q0-5-1.58-7.2a5.31,5.31,0,0,0-4.65-2.25,9.12,9.12,0,0,0-3.22.6,11.56,11.56,0,0,0-3,1.71A13.36,13.36,0,0,0,139,37.85a12.06,12.06,0,0,0-1.7,3.31V62H129.9V27h6.71v7a14.27,14.27,0,0,1,5.82-5.59,17.65,17.65,0,0,1,8.45-2A10.4,10.4,0,0,1,156,27.5a8.4,8.4,0,0,1,3.18,3.11,13.64,13.64,0,0,1,1.64,4.56,30.75,30.75,0,0,1,.47,5.46Z"/><path class="cls-1" d="M181.48,62.67a27,27,0,0,1-8.41-1.37,21.36,21.36,0,0,1-7.2-3.92l2.95-4.69a27,27,0,0,0,6.23,3.45,17.58,17.58,0,0,0,6.3,1.17A9.23,9.23,0,0,0,186.54,56a4.11,4.11,0,0,0,1.91-3.62,3.35,3.35,0,0,0-2.15-3.22A43.12,43.12,0,0,0,179.6,47c-2.18-.58-4.06-1.14-5.62-1.67a14.31,14.31,0,0,1-3.82-1.88A6.52,6.52,0,0,1,168,41a8,8,0,0,1-.67-3.42,10.5,10.5,0,0,1,1-4.75,10.12,10.12,0,0,1,2.88-3.52,12.93,12.93,0,0,1,4.32-2.18,18.84,18.84,0,0,1,5.37-.73,22,22,0,0,1,7.36,1.2,19.2,19.2,0,0,1,6.1,3.49l-3.15,4.42a16.43,16.43,0,0,0-10.38-3.89,8.92,8.92,0,0,0-4.73,1.17,4.07,4.07,0,0,0-1.91,3.72,3.7,3.7,0,0,0,.41,1.81,3.31,3.31,0,0,0,1.3,1.27,10.8,10.8,0,0,0,2.35,1c1,.29,2.15.61,3.58,1q3.56.87,6.13,1.74a16.91,16.91,0,0,1,4.26,2A7.75,7.75,0,0,1,194.75,48a8.32,8.32,0,0,1,.8,3.79,9.47,9.47,0,0,1-3.78,7.93Q188,62.68,181.48,62.67Z"/><path class="cls-1" d="M232.31,62h-7.37V42.37q0-4.83-1.71-7.14a5.75,5.75,0,0,0-4.92-2.31,8.39,8.39,0,0,0-3.08.6,11.57,11.57,0,0,0-2.92,1.71,13,13,0,0,0-2.44,2.62,11.06,11.06,0,0,0-1.61,3.31V62h-7.37V13.09h7.37V34a14.54,14.54,0,0,1,5.46-5.62,14.7,14.7,0,0,1,7.54-2,11,11,0,0,1,5.39,1.17A9.38,9.38,0,0,1,230,30.64a12.67,12.67,0,0,1,1.78,4.53,28.94,28.94,0,0,1,.5,5.46Z"/><path class="cls-1" d="M239.73,21.2V13.09h7.37V21.2Zm0,40.8V27h7.37V62Z"/><path class="cls-1" d="M274.6,62.67a13.77,13.77,0,0,1-7.44-2,15,15,0,0,1-5.09-5.23V76.27H254.7V27h6.5v6.3a15.31,15.31,0,0,1,5.19-5,13.94,13.94,0,0,1,7.21-1.87,14.92,14.92,0,0,1,6.63,1.47,16.93,16.93,0,0,1,5.23,4,18.56,18.56,0,0,1,3.45,5.76,19.54,19.54,0,0,1,1.24,6.91A21.79,21.79,0,0,1,289,51.58a17.76,17.76,0,0,1-3.22,5.76,15.73,15.73,0,0,1-4.92,3.89A13.7,13.7,0,0,1,274.6,62.67Zm-2.41-6.3a9,9,0,0,0,4.25-1,10.66,10.66,0,0,0,3.29-2.68,12.36,12.36,0,0,0,2.11-3.82,13.57,13.57,0,0,0,.73-4.42,12.6,12.6,0,0,0-.83-4.56,12.24,12.24,0,0,0-2.28-3.75A10.69,10.69,0,0,0,276,33.59a10.25,10.25,0,0,0-4.36-.94,8.82,8.82,0,0,0-2.94.54,12.11,12.11,0,0,0-2.89,1.47,11.85,11.85,0,0,0-2.34,2.18,7.41,7.41,0,0,0-1.41,2.71v9.18a13.77,13.77,0,0,0,1.74,3,13,13,0,0,0,2.38,2.41A11.44,11.44,0,0,0,269,55.77,8.63,8.63,0,0,0,272.19,56.37Z"/></g></g></svg>