<svg width="1440" height="1111" viewBox="0 0 1440 1111" fill="none" xmlns="http://www.w3.org/2000/svg">
<rect x="-1" y="1" width="1440" height="1111" fill="#1A77D2"/>
<path d="M1156 462.5C623.6 452.9 155.167 704.833 -12.5 832L-88 901.5C-118 974.167 -179.8 1135.8 -187 1201C-194.2 1266.2 -166.667 1305.5 -152 1317C109.667 1388.83 670.7 1542.3 821.5 1581.5C1010 1630.5 1196.5 1494.5 1301.5 1436.5C1406.5 1378.5 1603.5 1145.5 1696.5 1070C1789.5 994.5 1961 832 1964 817C1966.4 805 1810 298.667 1731.5 47C1761.5 189.5 1688.4 472.1 1156 462.5Z" fill="#519FEC" fill-opacity="0.45"/>
<path d="M1156 401.5C623.6 391.9 155.167 643.833 -12.5 771L-88 840.5C-118 913.167 -179.8 1074.8 -187 1140C-194.2 1205.2 -166.667 1244.5 -152 1256C109.667 1327.83 670.7 1481.3 821.5 1520.5C1010 1569.5 1196.5 1433.5 1301.5 1375.5C1406.5 1317.5 1603.5 1084.5 1696.5 1009C1789.5 933.5 1961 771 1964 756C1966.4 744 1810 237.667 1731.5 -14C1761.5 128.5 1688.4 411.1 1156 401.5Z" fill="#519FEC" fill-opacity="0.45"/>
<path d="M1156 325.5C623.6 315.9 155.167 567.833 -12.5 695L-88 764.5C-118 837.167 -179.8 998.8 -187 1064C-194.2 1129.2 -166.667 1168.5 -152 1180C109.667 1251.83 670.7 1405.3 821.5 1444.5C1010 1493.5 1196.5 1357.5 1301.5 1299.5C1406.5 1241.5 1603.5 1008.5 1696.5 933C1789.5 857.5 1961 695 1964 680C1966.4 668 1810 161.667 1731.5 -90C1761.5 52.5 1688.4 335.1 1156 325.5Z" fill="#519FEC" fill-opacity="0.45"/>
</svg>
